<svg version="1.2" baseProfile="tiny-ps" xmlns="http://www.w3.org/2000/svg" viewBox="0 0 30 30" width="30" height="30">
	<title>music-svg</title>
	<style>
		tspan { white-space:pre }
		.shp0 { opacity: 0.502;fill: #000000 } 
		.shp1 { fill: #ffffff } 
	</style>
	<path id="Layer" class="shp0" d="M15 0.5C23.01 0.5 29.5 6.99 29.5 15C29.5 23.01 23.01 29.5 15 29.5C6.99 29.5 0.5 23.01 0.5 15C0.5 6.99 6.99 0.5 15 0.5Z" />
	<path id="Layer" fill-rule="evenodd" class="shp1" d="M15 30C6.72 30 0 23.28 0 15C0 6.72 6.72 0 15 0C23.28 0 30 6.72 30 15C30 23.28 23.28 30 15 30ZM15 1.5C7.54 1.5 1.5 7.54 1.5 15C1.5 22.46 7.54 28.5 15 28.5C22.46 28.5 28.5 22.46 28.5 15C28.5 7.54 22.46 1.5 15 1.5Z" />
	<path id="Layer" class="shp1" d="M15.54 5C15.69 6 15.71 7.26 16.75 8.52C17.56 9.48 18.47 10.35 19.09 11.13C19.92 12.15 20.5 13.43 20.5 14.73C20.5 16.81 19.49 18.87 18.81 20.02L18.49 20.02C18.97 18.93 19.94 17.15 19.86 15.25C19.82 14.19 19.41 13.05 18.73 12.21C17.96 11.23 16.67 10.45 15.54 10.37L15.54 21.72C15.54 22.62 15 23.44 14.21 24.04C13.45 24.64 12.44 25 11.55 25C10.99 25 10.47 24.82 10.1 24.52C9.72 24.22 9.5 23.78 9.5 23.26C9.5 22.44 10.06 21.62 10.83 21.02C11.6 20.4 12.56 20 13.37 20C14.07 20 14.68 20.09 15.04 20.44L15.04 5L15.54 5Z" />
</svg>